HIERARCHY
ROOT joint_Root
{
	OFFSET 0.0 0.0 0.0
	CHANNELS 6 Xposition Yposition Zposition Zrotation Xrotation Yrotation 
	JOINT Hips
	{
		OFFSET -17.1583 93.1646 452.98
		CHANNELS 6 Xposition Yposition Zposition Zrotation Xrotation Yrotation 
		JOINT Spine
		{
			OFFSET 15.7357 0.0 0.0
			CHANNELS 6 Xposition Yposition Zposition Zrotation Xrotation Yrotation 
			JOINT Chest
			{
				OFFSET 8.98455 -0.406207 0.0
				CHANNELS 6 Xposition Yposition Zposition Zrotation Xrotation Yrotation 
				JOINT Neck
				{
					OFFSET 16.3773 0.0 0.0
					CHANNELS 6 Xposition Yposition Zposition Zrotation Xrotation Yrotation 
					JOINT Head
					{
						OFFSET 6.45672 0.0 0.0
						CHANNELS 6 Xposition Yposition Zposition Zrotation Xrotation Yrotation 
						End Site
						{
							OFFSET 0.0 0.0 0.0
						}
					}
				}
				JOINT Shoulder_L
				{
					OFFSET 12.9942 -0.242716 4.98039
					CHANNELS 6 Xposition Yposition Zposition Zrotation Xrotation Yrotation 
					JOINT UpperArm_L
					{
						OFFSET 5.34809 0.0 0.0
						CHANNELS 6 Xposition Yposition Zposition Zrotation Xrotation Yrotation 
						JOINT LowerArm_L
						{
							OFFSET 24.3286 1.87007e-05 0.0
							CHANNELS 6 Xposition Yposition Zposition Zrotation Xrotation Yrotation 
							JOINT Hand_L
							{
								OFFSET 22.2916 0.0 0.0
								CHANNELS 6 Xposition Yposition Zposition Zrotation Xrotation Yrotation 
								End Site
								{
									OFFSET 0.0 0.0 0.0
								}
							}
						}
					}
				}
				JOINT Shoulder_R
				{
					OFFSET 12.9945 -0.242716 -4.98039
					CHANNELS 6 Xposition Yposition Zposition Zrotation Xrotation Yrotation 
					JOINT UpperArm_R
					{
						OFFSET -5.34813 0.0 0.0
						CHANNELS 6 Xposition Yposition Zposition Zrotation Xrotation Yrotation 
						JOINT LowerArm_R
						{
							OFFSET -24.3289 0.000322201 0.0
							CHANNELS 6 Xposition Yposition Zposition Zrotation Xrotation Yrotation 
							JOINT Hand_R
							{
								OFFSET -22.2915 -0.000108084 0.0
								CHANNELS 6 Xposition Yposition Zposition Zrotation Xrotation Yrotation 
								End Site
								{
									OFFSET 0.0 0.0 0.0
								}
							}
						}
					}
				}
			}
		}
		JOINT UpperLeg_L
		{
			OFFSET -2.19248 -6.46944 0.0
			CHANNELS 6 Xposition Yposition Zposition Zrotation Xrotation Yrotation 
			JOINT LowerLeg_L
			{
				OFFSET 39.0811 0.0 -1.23785e-05
				CHANNELS 6 Xposition Yposition Zposition Zrotation Xrotation Yrotation 
				JOINT Foot_L
				{
					OFFSET 40.9854 0.0 -1.26872e-05
					CHANNELS 6 Xposition Yposition Zposition Zrotation Xrotation Yrotation 
					JOINT Toes_L
					{
						OFFSET 11.7543 0.0 0.0
						CHANNELS 6 Xposition Yposition Zposition Zrotation Xrotation Yrotation 
						End Site
						{
							OFFSET 0.0 0.0 0.0
						}
					}
				}
			}
		}
		JOINT UpperLeg_R
		{
			OFFSET -2.19251 6.46944 0.0
			CHANNELS 6 Xposition Yposition Zposition Zrotation Xrotation Yrotation 
			JOINT LowerLeg_R
			{
				OFFSET -39.0811 -0.00228153 -0.0401928
				CHANNELS 6 Xposition Yposition Zposition Zrotation Xrotation Yrotation 
				JOINT Foot_R
				{
					OFFSET -40.9854 0.0 0.0
					CHANNELS 6 Xposition Yposition Zposition Zrotation Xrotation Yrotation 
					JOINT Toes_R
					{
						OFFSET -11.7543 0.0 0.0
						CHANNELS 6 Xposition Yposition Zposition Zrotation Xrotation Yrotation 
						End Site
						{
							OFFSET 0.0 0.0 0.0
						}
					}
				}
			}
		}
	}
}
MOTION
Frames:	8
Frame Time:	0.0333333
0.000000 0.000000 0.000000 0.000000 0.000000 -0.000000 0.462929 90.604900 -412.507000 86.223300 -4.103090 -19.612700 15.735700 0.000005 -0.000001 57.983000 83.830400 -55.062600 8.984550 -0.406207 -0.000000 2.890360 -6.660040 6.008320 16.377300 -0.000001 -0.000001 -2.724410 6.457570 -3.399680 6.456720 -0.000001 -0.000000 -2.714210 11.683800 -5.814830 12.994200 -0.242716 4.980390 -91.185400 4.001200 -73.484800 5.348090 -0.000007 -0.000001 -69.256100 5.879660 6.015960 24.328600 0.000019 0.000005 32.833600 7.068910 -79.211700 22.291600 -0.000001 0.000005 13.553400 5.262650 1.066910 12.994500 -0.242716 -4.980390 90.325400 -0.939119 -70.889600 -5.348130 -0.000001 -0.000004 -55.687700 -17.323600 9.156300 -24.328900 0.000322 -0.000009 -0.000854 2.351070 -0.000000 -22.291500 -0.000108 -0.000004 29.996900 4.733620 12.535700 -2.192480 -6.469440 -0.000000 -178.225000 -2.026220 -1.722310 39.081100 -0.000007 -0.000012 -0.000376 0.000468 38.895700 40.985400 -0.000006 -0.000013 -9.515350 13.601200 -22.835300 11.754300 -0.000000 0.000003 0.001938 0.044427 -14.774600 -2.192510 6.469440 -0.000001 -170.660000 -0.606828 140.542000 -39.081100 -0.002282 -0.040193 0.203303 -0.331233 31.124400 -40.985400 0.000008 0.000006 -1.276510 -5.597590 -72.091700 -11.754300 -0.000006 -0.000006 0.000029 0.167174 -9.792850
0.000000 0.000000 0.000000 0.000000 0.000000 -0.000000 0.113506 87.235900 -404.901000 85.287000 -3.621690 -16.935400 15.735700 0.000005 -0.000001 71.355000 83.714100 -67.886700 8.984550 -0.406207 -0.000000 4.289270 -4.117910 7.085680 16.377300 -0.000001 -0.000001 -2.196790 5.496730 -4.302380 6.456720 -0.000001 -0.000000 -3.758030 9.063800 -6.767330 12.994200 -0.242716 4.980390 -91.681200 5.413140 -72.718200 5.348090 -0.000007 -0.000001 -70.603200 7.826610 7.569630 24.328600 0.000019 0.000005 33.576600 15.102200 -68.568500 22.291600 -0.000001 0.000005 1.127430 5.285840 0.473594 12.994500 -0.242716 -4.980390 89.518700 1.411300 -71.160900 -5.348130 -0.000001 -0.000004 -57.461600 -13.134000 3.538250 -24.328900 0.000322 -0.000009 -0.001053 -0.795990 -0.000015 -22.291500 -0.000108 -0.000004 20.300700 4.827360 10.756200 -2.192480 -6.469440 -0.000000 -176.166000 -1.811720 -7.735560 39.081100 -0.000007 -0.000012 0.127978 -0.074919 59.653400 40.985400 -0.000006 -0.000013 -10.844500 7.503210 -25.465700 11.754300 -0.000000 0.000003 0.001638 0.034834 -15.163700 -2.192510 6.469440 -0.000001 -169.249000 1.690300 140.721000 -39.081100 -0.002282 -0.040193 0.281428 -0.272033 45.638900 -40.985400 0.000008 0.000006 -0.334853 -4.091640 -79.487600 -11.754300 -0.000006 -0.000006 -0.004712 0.226323 -7.387150
0.000000 0.000000 0.000000 0.000000 0.000000 -0.000000 -0.173727 84.296800 -398.029000 83.680300 -3.830110 -14.729200 15.735700 0.000005 -0.000001 86.371100 82.892600 -82.273500 8.984550 -0.406207 -0.000000 6.467950 -0.942929 8.239740 16.377300 -0.000001 -0.000001 -3.731250 4.940320 -4.478440 6.456720 -0.000001 -0.000000 -5.261450 6.721600 -8.460250 12.994200 -0.242716 4.980390 -92.306100 7.076090 -71.898700 5.348090 -0.000007 -0.000001 -69.770600 7.255260 7.164010 24.328600 0.000019 0.000005 26.014900 22.794200 -51.547200 22.291600 -0.000001 0.000005 -5.293190 5.244110 1.595460 12.994500 -0.242716 -4.980390 89.068500 2.917170 -72.282200 -5.348130 -0.000001 -0.000004 -60.062300 -5.820600 -3.542010 -24.328900 0.000322 -0.000009 -0.010715 -0.392569 -1.721460 -22.291500 -0.000108 -0.000004 10.969300 4.969040 7.935640 -2.192480 -6.469440 -0.000000 -173.792000 -2.056470 -16.741100 39.081100 -0.000007 -0.000012 0.234979 -0.042714 79.695700 40.985400 -0.000006 -0.000013 -9.228030 3.115650 -28.800900 11.754300 -0.000000 0.000003 0.001780 0.039100 -14.990700 -2.192510 6.469440 -0.000001 -168.531000 2.385040 144.136000 -39.081100 -0.002282 -0.040193 0.000811 0.001761 53.960900 -40.985400 0.000008 0.000006 -3.678010 -1.850030 -87.084200 -11.754300 -0.000006 -0.000006 -0.004074 0.219876 -7.649790
0.000000 0.000000 0.000000 0.000000 0.000000 -0.000000 -0.421018 82.566400 -391.388000 83.092000 -3.145230 -13.223000 15.735700 0.000005 -0.000001 94.046200 82.213400 -89.628400 8.984550 -0.406207 -0.000000 7.742350 1.094060 8.752700 16.377300 -0.000001 -0.000001 -4.928470 4.538040 -4.324850 6.456720 -0.000001 -0.000000 -5.530400 4.948720 -9.593020 12.994200 -0.242716 4.980390 -92.810700 8.171540 -70.944800 5.348090 -0.000007 -0.000001 -67.579800 4.213020 6.580380 24.328600 0.000019 0.000005 16.099200 29.374000 -30.479200 22.291600 -0.000001 0.000005 -4.004210 5.158350 3.720890 12.994500 -0.242716 -4.980390 89.124500 3.035200 -73.901600 -5.348130 -0.000001 -0.000004 -61.467000 1.063910 -9.274520 -24.328900 0.000322 -0.000009 1.230410 6.250790 -11.097300 -22.291500 -0.000108 -0.000004 3.606350 5.097040 5.148420 -2.192480 -6.469440 -0.000000 -172.433000 -1.078960 -28.048700 39.081100 -0.000007 -0.000012 0.177210 0.014602 94.707300 40.985400 -0.000006 -0.000013 -6.547390 3.913080 -31.858100 11.754300 -0.000000 0.000003 0.001543 0.032162 -15.272100 -2.192510 6.469440 -0.000001 -168.445000 2.661880 149.854000 -39.081100 -0.002282 -0.040193 -0.002163 0.003588 56.317600 -40.985400 0.000008 0.000006 -4.731950 -1.493290 -92.848100 -11.754300 -0.000006 -0.000006 -0.002309 0.200185 -8.451240
0.000000 0.000000 0.000000 0.000000 0.000000 -0.000000 -0.372837 82.631100 -384.691000 84.799300 -2.294670 -13.531400 15.735700 0.000005 -0.000001 98.642500 82.322500 -95.012500 8.984550 -0.406207 -0.000000 7.356680 2.286040 7.105930 16.377300 -0.000001 -0.000001 -5.757680 3.707630 -3.659010 6.456720 -0.000001 -0.000000 -5.540530 3.487890 -8.702760 12.994200 -0.242716 4.980390 -92.741500 7.811940 -70.592800 5.348090 -0.000007 -0.000001 -63.637200 -4.859290 8.136040 24.328600 0.000019 0.000005 8.618790 36.000100 -14.463500 22.291600 -0.000001 0.000005 -0.219171 4.952000 8.269090 12.994500 -0.242716 -4.980390 89.196400 2.944930 -74.730300 -5.348130 -0.000001 -0.000004 -61.416500 6.895470 -13.104300 -24.328900 0.000322 -0.000009 4.751090 9.757230 -26.132000 -22.291500 -0.000108 -0.000004 3.396010 5.258290 1.246250 -2.192480 -6.469440 -0.000000 -173.699000 0.451879 -40.407700 39.081100 -0.000007 -0.000012 0.125585 0.027048 102.150000 40.985400 -0.000006 -0.000013 -5.561760 4.679950 -37.803300 11.754300 -0.000000 0.000003 0.001672 0.035821 -15.123700 -2.192510 6.469440 -0.000001 -170.778000 3.467910 156.297000 -39.081100 -0.002282 -0.040193 -0.012523 0.011999 52.716500 -40.985400 0.000008 0.000006 -5.733460 -0.739511 -94.774000 -11.754300 -0.000006 -0.000006 -0.000357 0.173469 -9.537170
0.000000 0.000000 0.000000 0.000000 0.000000 -0.000000 0.140707 84.408300 -377.470000 87.888500 -2.721380 -15.323700 15.735700 0.000005 -0.000001 104.868000 82.786600 -102.767000 8.984550 -0.406207 -0.000000 6.123640 3.661580 4.002340 16.377300 -0.000001 -0.000001 -6.368220 2.866290 -2.936120 6.456720 -0.000001 -0.000000 -6.199010 1.784890 -7.772690 12.994200 -0.242716 4.980390 -92.369100 6.679080 -70.418500 5.348090 -0.000007 -0.000001 -57.755800 -13.908500 11.758200 24.328600 0.000019 0.000005 3.438750 37.614800 -5.621330 22.291600 -0.000001 0.000005 2.078250 4.533310 16.040500 12.994500 -0.242716 -4.980390 89.503400 1.890850 -75.283100 -5.348130 -0.000001 -0.000004 -61.262600 10.726300 -15.053900 -24.328900 0.000322 -0.000009 4.908030 5.352120 -42.705500 -22.291500 -0.000108 -0.000004 9.694360 5.387520 -2.494710 -2.192480 -6.469440 -0.000000 -177.377000 0.904144 -50.433000 39.081100 -0.000007 -0.000012 0.110737 0.021919 101.190000 40.985400 -0.000006 -0.000013 -5.020390 3.047910 -46.709300 11.754300 -0.000000 0.000003 0.001629 0.034560 -15.174800 -2.192510 6.469440 -0.000001 -175.321000 4.255790 163.640000 -39.081100 -0.002282 -0.040193 -0.023696 0.028350 43.565500 -40.985400 0.000008 0.000006 -7.104640 1.242620 -91.022300 -11.754300 -0.000006 -0.000006 0.002118 0.116212 -11.860700
0.000000 0.000000 0.000000 0.000000 0.000000 -0.000000 0.961584 87.248900 -369.721000 91.649100 -3.996890 -18.129800 15.735700 0.000005 -0.000001 112.390000 83.363200 -112.214000 8.984550 -0.406207 -0.000000 4.513460 5.042230 0.153071 16.377300 -0.000001 -0.000001 -7.533000 2.191280 -2.611510 6.456720 -0.000001 -0.000000 -6.469270 -0.117076 -6.674640 12.994200 -0.242716 4.980390 -91.782200 5.025990 -70.447800 5.348090 -0.000007 -0.000001 -52.231600 -17.919500 15.979400 24.328600 0.000019 0.000005 1.229130 33.067200 -2.251460 22.291600 -0.000001 0.000005 3.547140 4.231950 20.821100 12.994500 -0.242716 -4.980390 89.825200 0.709001 -76.155800 -5.348130 -0.000001 -0.000004 -61.578800 11.789900 -15.494500 -24.328900 0.000322 -0.000009 0.179084 0.120113 -58.519900 -22.291500 -0.000108 -0.000004 15.686600 5.484470 -5.873390 -2.192480 -6.469440 -0.000000 177.787000 1.587580 -57.328700 39.081100 -0.000007 -0.000012 0.079373 0.004177 93.005100 40.985400 -0.000006 -0.000013 -4.665210 0.276709 -54.843700 11.754300 -0.000000 0.000003 0.001555 0.032484 -15.259000 -2.192510 6.469440 -0.000001 179.307000 4.683600 170.657000 -39.081100 -0.002282 -0.040193 -0.011246 0.024096 31.116600 -40.985400 0.000008 0.000006 -7.755240 1.200930 -79.975000 -11.754300 -0.000006 -0.000006 -0.002745 -0.037682 -18.105500
0.000000 0.000000 0.000000 0.000000 0.000000 -0.000000 1.670770 90.320200 -361.898000 94.848800 -4.580310 -21.983800 15.735700 0.000005 -0.000001 121.354000 84.385300 -122.775000 8.984550 -0.406207 -0.000000 1.908590 5.911920 -2.939590 16.377300 -0.000001 -0.000001 -8.657040 1.577700 -2.731540 6.456720 -0.000001 -0.000000 -5.418960 -1.815670 -5.476810 12.994200 -0.242716 4.980390 -90.968000 2.850840 -71.238000 5.348090 -0.000007 -0.000001 -48.188100 -20.712800 20.865300 24.328600 0.000019 0.000005 0.930927 28.202000 -1.969280 22.291600 -0.000001 0.000005 8.341300 4.111780 22.610300 12.994500 -0.242716 -4.980390 90.174800 -0.751922 -76.904200 -5.348130 -0.000001 -0.000004 -62.968400 11.539400 -14.968500 -24.328900 0.000322 -0.000009 -4.734850 -1.678320 -70.508600 -22.291500 -0.000108 -0.000004 18.588800 5.619840 -12.527900 -2.192480 -6.469440 -0.000000 174.839000 3.383450 -61.996600 39.081100 -0.000007 -0.000012 0.061987 -0.011501 79.482000 40.985400 -0.000006 -0.000013 -5.633060 0.071122 -60.136900 11.754300 -0.000000 0.000003 0.002104 0.050921 -14.511300 -2.192510 6.469440 -0.000001 175.544000 8.216980 174.798000 -39.081100 -0.002282 -0.040193 0.009858 -0.018599 19.359600 -40.985400 0.000008 0.000006 -4.603510 -0.119703 -62.047500 -11.754300 -0.000006 -0.000006 -0.041291 -0.265213 -27.471200
